<svg width="302" height="31" viewBox="0 0 302 31" fill="none" xmlns="http://www.w3.org/2000/svg">
<path d="M0.931818 24V6.54545H5.54545V9.625H5.75C6.11364 8.60227 6.7197 7.79545 7.56818 7.20454C8.41667 6.61364 9.43182 6.31818 10.6136 6.31818C11.8106 6.31818 12.8295 6.61742 13.6705 7.21591C14.5114 7.80682 15.072 8.60985 15.3523 9.625H15.5341C15.8902 8.625 16.5341 7.82576 17.4659 7.22727C18.4053 6.62121 19.5152 6.31818 20.7955 6.31818C22.4242 6.31818 23.7462 6.83712 24.7614 7.875C25.7841 8.9053 26.2955 10.3674 26.2955 12.2614V24H21.4659V13.2159C21.4659 12.2462 21.2083 11.5189 20.6932 11.0341C20.178 10.5492 19.5341 10.3068 18.7614 10.3068C17.8826 10.3068 17.197 10.5871 16.7045 11.1477C16.2121 11.7008 15.9659 12.4318 15.9659 13.3409V24H11.2727V13.1136C11.2727 12.2576 11.0265 11.5758 10.5341 11.0682C10.0492 10.5606 9.40909 10.3068 8.61364 10.3068C8.07576 10.3068 7.59091 10.4432 7.15909 10.7159C6.73485 10.9811 6.39773 11.3561 6.14773 11.8409C5.89773 12.3182 5.77273 12.8788 5.77273 13.5227V24H0.931818ZM41.3125 16.5682V6.54545H46.1534V24H41.5057V20.8295H41.3239C40.9299 21.8523 40.2746 22.6742 39.358 23.2955C38.4489 23.9167 37.339 24.2273 36.0284 24.2273C34.8617 24.2273 33.8352 23.9621 32.9489 23.4318C32.0625 22.9015 31.3693 22.1477 30.8693 21.1705C30.3769 20.1932 30.1269 19.0227 30.1193 17.6591V6.54545H34.9602V16.7955C34.9678 17.8258 35.2443 18.6402 35.7898 19.2386C36.3352 19.8371 37.0663 20.1364 37.983 20.1364C38.5663 20.1364 39.1117 20.0038 39.6193 19.7386C40.1269 19.4659 40.536 19.0644 40.8466 18.5341C41.1648 18.0038 41.3201 17.3485 41.3125 16.5682ZM54.8665 13.9091V24H50.0256V0.727272H54.7301V9.625H54.9347C55.3286 8.5947 55.965 7.78788 56.8438 7.20454C57.7225 6.61364 58.8248 6.31818 60.1506 6.31818C61.3627 6.31818 62.4195 6.58333 63.321 7.11364C64.2301 7.63636 64.9347 8.39015 65.4347 9.375C65.9422 10.3523 66.1922 11.5227 66.1847 12.8864V24H61.3438V13.75C61.3513 12.6742 61.0786 11.8371 60.5256 11.2386C59.9801 10.6402 59.215 10.3409 58.2301 10.3409C57.571 10.3409 56.9877 10.4811 56.4801 10.7614C55.9801 11.0417 55.5862 11.4508 55.2983 11.9886C55.018 12.5189 54.8741 13.1591 54.8665 13.9091ZM81.1875 16.5682V6.54545H86.0284V24H81.3807V20.8295H81.1989C80.8049 21.8523 80.1496 22.6742 79.233 23.2955C78.3239 23.9167 77.214 24.2273 75.9034 24.2273C74.7367 24.2273 73.7102 23.9621 72.8239 23.4318C71.9375 22.9015 71.2443 22.1477 70.7443 21.1705C70.2519 20.1932 70.0019 19.0227 69.9943 17.6591V6.54545H74.8352V16.7955C74.8428 17.8258 75.1193 18.6402 75.6648 19.2386C76.2102 19.8371 76.9413 20.1364 77.858 20.1364C78.4413 20.1364 78.9867 20.0038 79.4943 19.7386C80.0019 19.4659 80.411 19.0644 80.7216 18.5341C81.0398 18.0038 81.1951 17.3485 81.1875 16.5682ZM94.8778 24.3295C93.7642 24.3295 92.7718 24.1364 91.9006 23.75C91.0294 23.3561 90.34 22.7765 89.8324 22.0114C89.3324 21.2386 89.0824 20.2765 89.0824 19.125C89.0824 18.1553 89.2604 17.3409 89.6165 16.6818C89.9725 16.0227 90.4574 15.4924 91.071 15.0909C91.6847 14.6894 92.3816 14.3864 93.1619 14.1818C93.9498 13.9773 94.7756 13.8333 95.6392 13.75C96.6544 13.6439 97.4725 13.5455 98.0938 13.4545C98.715 13.3561 99.1657 13.2121 99.446 13.0227C99.7263 12.8333 99.8665 12.553 99.8665 12.1818V12.1136C99.8665 11.3939 99.6392 10.8371 99.1847 10.4432C98.7377 10.0492 98.1013 9.85227 97.2756 9.85227C96.4044 9.85227 95.7112 10.0455 95.196 10.4318C94.6809 10.8106 94.34 11.2879 94.1733 11.8636L89.696 11.5C89.9233 10.4394 90.3703 9.52273 91.0369 8.75C91.7036 7.9697 92.5634 7.37121 93.6165 6.95454C94.6771 6.5303 95.9044 6.31818 97.2983 6.31818C98.268 6.31818 99.196 6.43182 100.082 6.65909C100.976 6.88636 101.768 7.23864 102.457 7.71591C103.154 8.19318 103.704 8.80682 104.105 9.55682C104.507 10.2992 104.707 11.1894 104.707 12.2273V24H100.116V21.5795H99.9801C99.6998 22.125 99.3248 22.6061 98.8551 23.0227C98.3854 23.4318 97.821 23.7538 97.1619 23.9886C96.5028 24.2159 95.7415 24.3295 94.8778 24.3295ZM96.2642 20.9886C96.9763 20.9886 97.6051 20.8485 98.1506 20.5682C98.696 20.2803 99.1241 19.8939 99.4347 19.4091C99.7453 18.9242 99.9006 18.375 99.9006 17.7614V15.9091C99.7491 16.0076 99.5407 16.0985 99.2756 16.1818C99.018 16.2576 98.7263 16.3295 98.4006 16.3977C98.0748 16.4583 97.7491 16.5152 97.4233 16.5682C97.0975 16.6136 96.8021 16.6553 96.5369 16.6932C95.9688 16.7765 95.4725 16.9091 95.0483 17.0909C94.6241 17.2727 94.2945 17.5189 94.0597 17.8295C93.8248 18.1326 93.7074 18.5114 93.7074 18.9659C93.7074 19.625 93.946 20.1288 94.4233 20.4773C94.9081 20.8182 95.5218 20.9886 96.2642 20.9886ZM113.304 13.9091V24H108.463V6.54545H113.077V9.625H113.281C113.668 8.60985 114.315 7.80682 115.224 7.21591C116.134 6.61742 117.236 6.31818 118.531 6.31818C119.743 6.31818 120.8 6.58333 121.702 7.11364C122.603 7.64394 123.304 8.40151 123.804 9.38636C124.304 10.3636 124.554 11.5303 124.554 12.8864V24H119.713V13.75C119.721 12.6818 119.448 11.8485 118.895 11.25C118.342 10.6439 117.58 10.3409 116.611 10.3409C115.959 10.3409 115.384 10.4811 114.884 10.7614C114.391 11.0417 114.005 11.4508 113.724 11.9886C113.452 12.5189 113.312 13.1591 113.304 13.9091ZM144.483 24.3636C143.028 24.3636 141.744 23.9962 140.631 23.2614C139.517 22.5189 138.646 21.4735 138.017 20.125C137.388 18.7689 137.074 17.1667 137.074 15.3182C137.074 13.4848 137.388 11.8939 138.017 10.5455C138.646 9.19697 139.521 8.1553 140.642 7.42045C141.763 6.68561 143.059 6.31818 144.528 6.31818C145.665 6.31818 146.563 6.50758 147.222 6.88636C147.888 7.25758 148.396 7.68182 148.744 8.15909C149.1 8.62879 149.377 9.01515 149.574 9.31818H149.801V0.727272H152.483V24H149.892V21.3182H149.574C149.377 21.6364 149.097 22.0379 148.733 22.5227C148.369 23 147.85 23.428 147.176 23.8068C146.502 24.178 145.604 24.3636 144.483 24.3636ZM144.847 21.9545C145.922 21.9545 146.831 21.6742 147.574 21.1136C148.316 20.5455 148.881 19.7614 149.267 18.7614C149.653 17.7538 149.847 16.5909 149.847 15.2727C149.847 13.9697 149.657 12.8295 149.278 11.8523C148.9 10.8674 148.339 10.1023 147.597 9.55682C146.854 9.00379 145.938 8.72727 144.847 8.72727C143.71 8.72727 142.763 9.01894 142.006 9.60227C141.256 10.178 140.691 10.9621 140.312 11.9545C139.941 12.9394 139.756 14.0455 139.756 15.2727C139.756 16.5152 139.945 17.6439 140.324 18.6591C140.71 19.6667 141.278 20.4697 142.028 21.0682C142.786 21.6591 143.725 21.9545 144.847 21.9545ZM165.085 24.3636C163.403 24.3636 161.953 23.9924 160.733 23.25C159.521 22.5 158.585 21.4545 157.926 20.1136C157.275 18.7652 156.949 17.197 156.949 15.4091C156.949 13.6212 157.275 12.0455 157.926 10.6818C158.585 9.31061 159.502 8.24242 160.676 7.47727C161.858 6.70455 163.237 6.31818 164.812 6.31818C165.722 6.31818 166.619 6.4697 167.506 6.77273C168.392 7.07576 169.199 7.56818 169.926 8.25C170.653 8.92424 171.233 9.81818 171.665 10.9318C172.097 12.0455 172.312 13.4167 172.312 15.0455V16.1818H158.858V13.8636H169.585C169.585 12.8788 169.388 12 168.994 11.2273C168.608 10.4545 168.055 9.8447 167.335 9.39773C166.623 8.95076 165.782 8.72727 164.812 8.72727C163.744 8.72727 162.82 8.99242 162.04 9.52273C161.267 10.0455 160.672 10.7273 160.256 11.5682C159.839 12.4091 159.631 13.3106 159.631 14.2727V15.8182C159.631 17.1364 159.858 18.2538 160.312 19.1705C160.775 20.0795 161.415 20.7727 162.233 21.25C163.051 21.7197 164.002 21.9545 165.085 21.9545C165.79 21.9545 166.426 21.8561 166.994 21.6591C167.57 21.4545 168.066 21.1515 168.483 20.75C168.9 20.3409 169.222 19.8333 169.449 19.2273L172.04 19.9545C171.767 20.8333 171.309 21.6061 170.665 22.2727C170.021 22.9318 169.225 23.447 168.278 23.8182C167.331 24.1818 166.267 24.3636 165.085 24.3636ZM190.134 6.54545L183.679 24H180.952L174.497 6.54545H177.406L182.224 20.4545H182.406L187.224 6.54545H190.134ZM200.366 24.3636C198.685 24.3636 197.234 23.9924 196.014 23.25C194.802 22.5 193.866 21.4545 193.207 20.1136C192.556 18.7652 192.23 17.197 192.23 15.4091C192.23 13.6212 192.556 12.0455 193.207 10.6818C193.866 9.31061 194.783 8.24242 195.957 7.47727C197.139 6.70455 198.518 6.31818 200.094 6.31818C201.003 6.31818 201.901 6.4697 202.787 6.77273C203.673 7.07576 204.48 7.56818 205.207 8.25C205.935 8.92424 206.514 9.81818 206.946 10.9318C207.378 12.0455 207.594 13.4167 207.594 15.0455V16.1818H194.139V13.8636H204.866C204.866 12.8788 204.67 12 204.276 11.2273C203.889 10.4545 203.336 9.8447 202.616 9.39773C201.904 8.95076 201.063 8.72727 200.094 8.72727C199.026 8.72727 198.101 8.99242 197.321 9.52273C196.548 10.0455 195.954 10.7273 195.537 11.5682C195.12 12.4091 194.912 13.3106 194.912 14.2727V15.8182C194.912 17.1364 195.139 18.2538 195.594 19.1705C196.056 20.0795 196.696 20.7727 197.514 21.25C198.332 21.7197 199.283 21.9545 200.366 21.9545C201.071 21.9545 201.707 21.8561 202.276 21.6591C202.851 21.4545 203.348 21.1515 203.764 20.75C204.181 20.3409 204.503 19.8333 204.73 19.2273L207.321 19.9545C207.048 20.8333 206.59 21.6061 205.946 22.2727C205.302 22.9318 204.507 23.447 203.56 23.8182C202.613 24.1818 201.548 24.3636 200.366 24.3636ZM214.355 0.727272V24H211.673V0.727272H214.355ZM226.358 24.3636C224.782 24.3636 223.4 23.9886 222.21 23.2386C221.028 22.4886 220.104 21.4394 219.438 20.0909C218.778 18.7424 218.449 17.1667 218.449 15.3636C218.449 13.5455 218.778 11.9583 219.438 10.6023C220.104 9.24621 221.028 8.19318 222.21 7.44318C223.4 6.69318 224.782 6.31818 226.358 6.31818C227.934 6.31818 229.313 6.69318 230.494 7.44318C231.684 8.19318 232.608 9.24621 233.267 10.6023C233.934 11.9583 234.267 13.5455 234.267 15.3636C234.267 17.1667 233.934 18.7424 233.267 20.0909C232.608 21.4394 231.684 22.4886 230.494 23.2386C229.313 23.9886 227.934 24.3636 226.358 24.3636ZM226.358 21.9545C227.555 21.9545 228.54 21.6477 229.312 21.0341C230.085 20.4205 230.657 19.6136 231.028 18.6136C231.4 17.6136 231.585 16.5303 231.585 15.3636C231.585 14.197 231.4 13.1098 231.028 12.1023C230.657 11.0947 230.085 10.2803 229.312 9.65909C228.54 9.03788 227.555 8.72727 226.358 8.72727C225.161 8.72727 224.176 9.03788 223.403 9.65909C222.631 10.2803 222.059 11.0947 221.688 12.1023C221.316 13.1098 221.131 14.197 221.131 15.3636C221.131 16.5303 221.316 17.6136 221.688 18.6136C222.059 19.6136 222.631 20.4205 223.403 21.0341C224.176 21.6477 225.161 21.9545 226.358 21.9545ZM238.361 30.5455V6.54545H240.952V9.31818H241.27C241.467 9.01515 241.74 8.62879 242.088 8.15909C242.444 7.68182 242.952 7.25758 243.611 6.88636C244.277 6.50758 245.179 6.31818 246.315 6.31818C247.785 6.31818 249.08 6.68561 250.202 7.42045C251.323 8.1553 252.198 9.19697 252.827 10.5455C253.455 11.8939 253.77 13.4848 253.77 15.3182C253.77 17.1667 253.455 18.7689 252.827 20.125C252.198 21.4735 251.327 22.5189 250.213 23.2614C249.099 23.9962 247.815 24.3636 246.361 24.3636C245.24 24.3636 244.342 24.178 243.668 23.8068C242.993 23.428 242.474 23 242.111 22.5227C241.747 22.0379 241.467 21.6364 241.27 21.3182H241.043V30.5455H238.361ZM240.997 15.2727C240.997 16.5909 241.19 17.7538 241.577 18.7614C241.963 19.7614 242.527 20.5455 243.27 21.1136C244.012 21.6742 244.921 21.9545 245.997 21.9545C247.118 21.9545 248.054 21.6591 248.804 21.0682C249.562 20.4697 250.13 19.6667 250.509 18.6591C250.895 17.6439 251.088 16.5152 251.088 15.2727C251.088 14.0455 250.899 12.9394 250.52 11.9545C250.149 10.9621 249.584 10.178 248.827 9.60227C248.077 9.01894 247.134 8.72727 245.997 8.72727C244.906 8.72727 243.99 9.00379 243.247 9.55682C242.505 10.1023 241.944 10.8674 241.565 11.8523C241.187 12.8295 240.997 13.9697 240.997 15.2727ZM265.179 24.3636C263.497 24.3636 262.046 23.9924 260.827 23.25C259.615 22.5 258.679 21.4545 258.02 20.1136C257.368 18.7652 257.043 17.197 257.043 15.4091C257.043 13.6212 257.368 12.0455 258.02 10.6818C258.679 9.31061 259.596 8.24242 260.77 7.47727C261.952 6.70455 263.33 6.31818 264.906 6.31818C265.815 6.31818 266.713 6.4697 267.599 6.77273C268.486 7.07576 269.293 7.56818 270.02 8.25C270.747 8.92424 271.327 9.81818 271.759 10.9318C272.19 12.0455 272.406 13.4167 272.406 15.0455V16.1818H258.952V13.8636H269.679C269.679 12.8788 269.482 12 269.088 11.2273C268.702 10.4545 268.149 9.8447 267.429 9.39773C266.717 8.95076 265.876 8.72727 264.906 8.72727C263.838 8.72727 262.914 8.99242 262.134 9.52273C261.361 10.0455 260.766 10.7273 260.349 11.5682C259.933 12.4091 259.724 13.3106 259.724 14.2727V15.8182C259.724 17.1364 259.952 18.2538 260.406 19.1705C260.868 20.0795 261.509 20.7727 262.327 21.25C263.145 21.7197 264.096 21.9545 265.179 21.9545C265.884 21.9545 266.52 21.8561 267.088 21.6591C267.664 21.4545 268.16 21.1515 268.577 20.75C268.993 20.3409 269.315 19.8333 269.543 19.2273L272.134 19.9545C271.861 20.8333 271.402 21.6061 270.759 22.2727C270.115 22.9318 269.319 23.447 268.372 23.8182C267.425 24.1818 266.361 24.3636 265.179 24.3636ZM276.486 24V6.54545H279.077V9.18182H279.259C279.577 8.31818 280.152 7.61742 280.986 7.07954C281.819 6.54167 282.759 6.27273 283.804 6.27273C284.001 6.27273 284.247 6.27651 284.543 6.28409C284.838 6.29167 285.062 6.30303 285.213 6.31818V9.04545C285.122 9.02273 284.914 8.98864 284.588 8.94318C284.27 8.89015 283.933 8.86364 283.577 8.86364C282.728 8.86364 281.971 9.04167 281.304 9.39773C280.645 9.74621 280.122 10.2311 279.736 10.8523C279.357 11.4659 279.168 12.1667 279.168 12.9545V24H276.486ZM300.756 10.4545L298.347 11.1364C298.195 10.7348 297.972 10.3447 297.676 9.96591C297.388 9.57955 296.994 9.26136 296.494 9.01136C295.994 8.76136 295.354 8.63636 294.574 8.63636C293.506 8.63636 292.616 8.88258 291.903 9.375C291.199 9.85985 290.847 10.4773 290.847 11.2273C290.847 11.8939 291.089 12.4205 291.574 12.8068C292.059 13.1932 292.816 13.5152 293.847 13.7727L296.438 14.4091C297.998 14.7879 299.161 15.3674 299.926 16.1477C300.691 16.9205 301.074 17.9167 301.074 19.1364C301.074 20.1364 300.786 21.0303 300.21 21.8182C299.642 22.6061 298.847 23.2273 297.824 23.6818C296.801 24.1364 295.612 24.3636 294.256 24.3636C292.475 24.3636 291.002 23.9773 289.835 23.2045C288.669 22.4318 287.93 21.303 287.619 19.8182L290.165 19.1818C290.407 20.1212 290.866 20.8258 291.54 21.2955C292.222 21.7652 293.112 22 294.21 22C295.46 22 296.453 21.7348 297.188 21.2045C297.93 20.6667 298.301 20.0227 298.301 19.2727C298.301 18.6667 298.089 18.1591 297.665 17.75C297.241 17.3333 296.589 17.0227 295.71 16.8182L292.801 16.1364C291.203 15.7576 290.028 15.1705 289.278 14.375C288.536 13.572 288.165 12.5682 288.165 11.3636C288.165 10.3788 288.441 9.50758 288.994 8.75C289.555 7.99242 290.316 7.39773 291.278 6.96591C292.248 6.53409 293.347 6.31818 294.574 6.31818C296.301 6.31818 297.657 6.69697 298.642 7.45454C299.634 8.21212 300.339 9.21212 300.756 10.4545Z" fill="white"/>
</svg>
